<svg width="32" height="36" viewBox="0 0 32 36" fill="none" xmlns="http://www.w3.org/2000/svg">
<path d="M26.3389 13.2386L27.5996 14.4953C28.1334 15.0274 28.1334 15.8879 27.5996 16.4144L16.5654 27.4191C16.0316 27.9513 15.1683 27.9513 14.6402 27.4191L3.60032 16.4144C3.0665 15.8822 3.0665 15.0218 3.60032 14.4953L4.86105 13.2386C5.40055 12.7008 6.28078 12.7121 6.80893 13.2612L13.3284 20.0826V3.8132C13.3284 3.06031 13.936 2.45459 14.6913 2.45459H16.5086C17.2639 2.45459 17.8715 3.06031 17.8715 3.8132V20.0826L24.391 13.2612C24.9191 12.7065 25.7994 12.6951 26.3389 13.2386Z" fill="white"/>
<rect x="3.19995" y="29.4546" width="24.8" height="4.09092" rx="0.5" fill="white"/>
</svg>
