<svg width="57" height="54" viewBox="0 0 57 54" fill="none" xmlns="http://www.w3.org/2000/svg">
<path fill-rule="evenodd" clip-rule="evenodd" d="M46.304 11.8239C37.3698 8.74786 22.4233 9.41252 20.2127 20.5079C19.2877 25.1526 21.0893 30.0654 24.4252 33.4401C28.2937 37.3526 34.4547 37.7154 34.1257 30.9017C33.897 26.1865 29.2304 22.091 37.435 21.1406C42.5407 20.5497 50.0924 24.2214 50.3462 29.6447C50.9206 41.8688 28.9148 42.8272 20.8054 40.7128C4.71016 36.5193 9.08293 20.3089 20.1359 12.9108C22.991 10.9987 31.1839 8.05432 31.5579 4.08399C32.0554 -1.18195 25.2834 -0.106248 21.9641 0.587315C-2.4342 5.69432 -7.75199 44.9962 17.7416 52.4055C29.3189 55.7689 45.6228 52.2963 52.6002 42.2139C59.1419 32.7609 59.2303 16.2743 46.304 11.8239Z" fill="#C2D0FB"/>
</svg>
