<svg width="126" height="101" viewBox="0 0 126 101" fill="none" xmlns="http://www.w3.org/2000/svg">
<path fill-rule="evenodd" clip-rule="evenodd" d="M118.91 53.9715C119.371 53.025 119.831 52.0785 120.292 51.1327C120.862 52.7824 121.021 53.603 118.91 53.9715ZM119.524 58.3433C118.525 58.4995 118.918 55.7608 118.918 55.2836C120.643 56.1372 119.215 57.1608 119.524 58.3433ZM117.966 50.4425C118.818 50.0027 119.669 49.5636 120.521 49.1239C119.335 51.0442 119.8 49.8443 120.289 51.127C119.395 51.3515 118.525 51.0895 117.966 50.4425ZM112.92 65.451C109.728 75.573 99.5896 83.5559 88.8815 87.691C82.7283 90.0662 76.6788 90.6607 70.0339 90.3958C67.4711 90.2936 64.4554 89.5659 61.989 89.7013C60.09 89.8056 60.1756 89.8776 58.6027 91.2826C57.9069 90.1626 58.4109 89.3767 57.015 88.7245C55.2733 87.9112 54.5502 88.8584 53.6864 89.9849C52.5557 88.9606 52.0929 88.4258 50.6279 87.8176C50.674 87.8371 49.2254 87.7889 49.2847 87.8047C49.0228 87.7342 47.4475 86.8489 46.9542 86.6876C44.93 86.024 42.5896 85.7512 40.7219 84.799C39.088 83.9676 37.7424 81.6334 35.873 83.4271C35.8714 80.43 31.2523 79.187 29.0873 77.6171C25.7043 75.1642 23.0148 71.5323 21.3282 68.0191C19.5297 64.2727 18.9293 60.6811 18.0877 56.8203C17.4997 54.1226 13.649 50.2229 15.9614 47.5008C16.5123 48.6423 16.2537 49.8112 17.1687 50.8462C17.9922 49.4593 18.4451 47.9075 18.8173 46.3895C19.0001 45.646 20.0592 43.4636 19.9389 42.8159C19.6944 41.4901 17.8168 41.4181 18.8577 39.7928C21.0169 41.8463 22.7595 38.2403 21.1281 36.8029C20.3227 37.5968 20.0271 38.4987 19.6557 39.4819C17.5326 35.7362 23.4084 36.9426 22.1229 33.5611C24.2673 33.2005 25.5001 32.7284 26.3154 30.8764C27.2221 28.8157 26.555 28.3666 28.6138 27.0048C29.322 26.537 31.3248 25.864 31.6913 25.0938C32.4003 23.6061 30.596 23.1649 32.1763 21.7707C32.7099 22.589 34.7901 24.2092 35.929 22.6675C36.1572 22.3602 35.1994 22.1421 35.8961 21.4338C36.928 20.3859 38.0825 19.358 39.8275 19.5783C38.4457 16.5589 47.2754 16.3199 49.5367 15.6073C51.803 14.8941 53.7259 14.4255 56.1289 14.2599C58.5294 14.0944 58.6488 13.4797 60.6813 12.2165C60.8534 14.0239 61.3508 13.6265 62.8208 13.9454C63.174 13.4156 63.5364 13.3559 63.907 13.7669C64.2759 14.0735 64.7272 14.2175 65.2592 14.2002C66.0662 14.2369 66.9819 14.1448 67.8277 14.1599C69.8132 14.1937 71.8612 14.049 73.8088 14.0857C74.3112 14.0123 74.7806 13.8597 75.2203 13.6273C75.404 13.9296 75.5884 14.2326 75.7713 14.5356C76.8031 14.6486 76.883 15.7786 78.152 14.5428C78.5275 16.1141 79.6064 15.2964 80.7461 15.7225C81.7854 16.1119 81.9509 16.7338 82.9103 17.1678C83.5411 17.6148 84.2172 17.6738 84.9402 17.3463C85.6279 17.7918 86.3262 18.2244 87.0344 18.644C88.3397 19.2882 89.878 19.6826 91.2533 20.1915C92.1682 20.5212 93.0773 20.8645 93.9791 21.2201C94.0062 22.1716 94.4946 22.5077 95.4433 22.2277C96.3006 22.8546 96.5418 22.8302 97.3736 23.8976C99.2578 26.3167 100.929 28.196 103.309 30.3582C113.654 39.7583 116.831 53.048 112.92 65.451ZM116.094 25.4796C111.424 20.0137 104.814 13.7547 98.874 10.3027C95.8633 8.55222 91.637 5.41044 87.9551 4.48483C87.0822 4.2653 86.1788 4.25089 85.3207 4.02057C84.6578 3.84278 84.2971 3.24827 83.5411 3.14103C83.0124 3.06617 82.9539 4.10046 82.3923 4.00545C81.218 3.80536 80.4735 2.78689 79.6442 2.1499C77.863 4.83246 76.8962 0.320983 74.2807 3.35407C71.1678 -0.911973 63.8551 0.0208409 58.8844 0.23605C57.4103 0.29939 56.7177 0.757895 55.4108 1.09762C54.1945 1.4136 54.0743 1.33226 52.7459 1.32363C49.4379 1.30131 46.5013 1.6648 43.4436 2.93446C38.3065 5.06712 33.5911 8.39027 28.7118 10.9605C23.2585 13.8331 18.343 17.4895 14.1711 21.6908C-0.910678 36.8821 -4.94341 59.0559 7.08231 76.6671C26.1836 104.638 75.455 107.627 103.374 88.6483C124.945 73.9845 133.153 45.4416 116.094 25.4796Z" fill="#C2D0FB"/>
</svg>
