<svg width="199" height="164" viewBox="0 0 199 164" fill="none" xmlns="http://www.w3.org/2000/svg">
<path fill-rule="evenodd" clip-rule="evenodd" d="M131.704 44.7949C141.698 61.5954 155.794 76.3535 167.057 92.5054C169.877 96.5482 179.989 106.865 177.493 110.876C176.034 113.222 170.458 114.471 167.816 115.361C163.291 116.885 158.919 118.515 154.521 120.303C134.384 128.491 114.882 137.128 94.1273 144.169C91.0035 145.227 79.585 151.859 80.3585 146.354C80.7095 143.859 82.807 141.823 81.6702 138.835C81.0857 137.297 76.8767 134.694 79.4595 133.126C80.1378 133.87 80.8166 134.614 81.4965 135.357C81.821 133.319 82.9764 131.447 82.9045 129.349C82.8596 128.046 81.8948 127.003 82.1301 125.665C82.455 123.815 84.5384 122.435 85.3192 120.73C86.0994 119.03 86.0319 117.06 86.3508 115.268C88.24 104.645 92.3585 94.9347 96.0799 84.7739C99.7625 74.7198 102.313 64.5215 106.727 54.6673C111.388 44.2586 115.786 33.7564 119.693 23.1072C122.717 24.9767 123.416 29.1995 124.7 31.9878C126.717 36.37 129.212 40.6068 131.704 44.7949ZM63.4856 135.143C63.0372 134.292 62.8202 133.398 62.834 132.46C72.453 132.602 64.5103 136.182 63.4856 135.143ZM62.9519 125.943C59.1342 125.239 56.634 124.316 54.7552 121.947C54.5766 121.723 55.372 120.971 55.0356 120.591C54.7411 120.26 54.0388 120.188 53.7945 119.892C52.9622 118.885 50.3558 119.091 51.2802 117.092C56.2189 117.878 61.6499 117.666 66.3676 119.347C72.9235 121.683 69.3808 127.129 62.9519 125.943ZM54.7172 108.297C49.6055 107.169 44.571 107.65 40.0506 104.89C35.8063 102.301 33.0522 98.4491 30.8467 94.448C41.1332 96.2818 50.7937 100.136 61.0303 102.039C64.363 102.659 69.2828 102.547 72.0003 104.714C75.0191 107.122 73.568 110.088 73.096 113.17C66.9785 111.521 60.9261 109.668 54.7172 108.297ZM32.6073 84.3339C27.6849 83.2692 22.031 83.2479 20.3792 78.134C20.1122 77.3086 19.2691 77.6317 20.3416 75.9445C21.4721 74.1651 24.0356 73.8474 26.0268 73.94C30.7082 74.1584 35.4783 77.5369 39.6496 79.1411C46.3028 81.7017 53.5495 83.4933 60.4542 85.4709C65.2346 86.8408 70.6044 87.5148 74.9588 89.8257C78.3206 91.6101 81.0108 96.104 74.8273 95.7048C69.1956 95.3423 62.4149 91.9469 56.968 90.4319C48.9164 88.1924 40.808 86.1071 32.6073 84.3339ZM38.8452 64.3567C38.9818 64.7382 39.1183 65.1196 39.2548 65.5011C39.2134 65.4703 41.6567 65.0272 42.1354 65.1986C44.4586 66.0338 46.6183 67.1777 48.9103 68.0736C54.1915 70.1379 59.8214 71.6921 65.3652 73.1073C69.8814 74.2601 74.7699 74.9401 78.8205 77.1513C82.3278 79.0653 82.3303 79.8945 80.769 83.0895C71.4268 78.8721 61.9039 74.3558 51.7142 71.9393C45.0808 70.3654 36.5393 70.7412 37.0673 63.3513C37.6603 63.6866 38.2523 64.0214 38.8452 64.3567ZM52.3094 53.9242C53.7264 56.5119 61.5375 56.7986 64.4635 57.796C67.6412 58.8781 70.6468 59.8692 73.9518 60.532C76.8825 61.1188 87.1516 62.0781 87.5156 65.7584C88.075 71.3978 75.2821 66.6112 73.2033 65.9395C64.4846 63.1224 55.5162 60.0659 46.4381 58.3431C48.3951 56.8705 50.3519 55.3978 52.3094 53.9242ZM72.0086 44.52C71.458 46.7615 94.2435 47.8721 91.5022 53.3033C89.3999 57.4708 69.6105 51.0863 66.4717 49.2203C68.3433 47.7091 71.4022 46.9802 72.0086 44.52ZM85.463 34.9425C88.1766 31.1452 88.7732 31.4435 92.6396 32.7157C95.5883 33.686 100.244 33.9868 96.9921 37.9939C94.2077 41.425 82.726 38.7752 85.463 34.9425ZM100.072 24.2568C102.195 22.5187 102.494 26.2834 101.903 27.3875C100.329 30.3256 98.1875 28.5697 95.776 27.481C97.2341 26.435 98.6683 25.3588 100.072 24.2568ZM139.947 22.0173C139.757 21.2774 137.111 19.833 136.471 19.2269C134.9 17.7353 135.944 16.5397 132.712 16.7247C132.652 16.5601 133.458 15.6878 133.349 15.5822C133.295 15.5287 131.896 14.1751 131.516 13.6057C130.601 12.2318 129.811 10.9348 129.119 9.41673C128.384 7.80392 127.913 5.73246 126.867 4.24065C126.426 3.61182 126.185 2.89344 125.475 2.44138C123.633 1.26934 123.496 2.74514 121.607 2.19776C120.443 1.86071 120.3 0.408136 118.616 0.246398C117.16 0.106055 115.584 1.27866 114.524 1.92148C110.669 4.26198 107.12 7.05231 103.287 9.44596C83.6819 21.6857 63.0987 32.6836 43.7124 45.2187C34.3742 51.2579 24.8031 57.2631 16.531 64.4269C10.5657 69.594 -0.0116801 76.3013 0.900778 84.5672C1.56445 90.5772 7.03412 95.5123 11.0325 100.077C17.0485 106.945 21.8562 114.542 28.0182 121.349C35.3659 129.466 42.3351 137.633 49.1827 146.085C52.103 149.689 54.1704 153.915 57.1334 157.418C58.9456 159.561 63.7319 159.462 63.1196 162.221C68.0334 160.376 71.6999 164.74 76.5352 164.062C79.3793 163.664 82.4204 161.722 85.1013 160.86C89.1222 159.568 93.2604 158.554 97.3087 157.329C113.381 152.46 128.882 146.831 144.424 140.824C159.268 135.09 175.326 130.59 189.3 123.285C194.848 120.386 198.018 116.15 198.759 110.515C199.299 106.404 198.791 99.5986 192.397 99.5957C195.942 97.6763 190.272 91.3582 188.343 89.7995C188.314 89.7765 186.623 91.7168 186.028 91.3805C186.239 91.5003 186.911 85.7889 186.342 84.7609C184.656 81.705 182.551 78.0777 180.427 75.2298C178.478 72.6181 175.974 70.6296 174.208 67.8935C172.065 64.5774 170.389 61.0349 168.227 57.7259C166.139 54.5311 163.883 50.8497 161.141 48.0635C158.764 45.6469 156.194 44.2236 154.514 41.2635C152.435 37.6009 150.378 34.8245 147.397 31.6017C144.818 28.8139 140.86 25.6087 139.947 22.0173Z" fill="#C2D0FB"/>
</svg>
