<svg width="42" height="28" viewBox="0 0 42 28" fill="none" xmlns="http://www.w3.org/2000/svg">
<path fill-rule="evenodd" clip-rule="evenodd" d="M0.902717 7.12443C2.65945 8.6983 6.28802 6.17212 8.13631 6.08514C11.2017 5.94212 15.0263 7.82723 16.1786 10.5007C18.4299 15.72 12.8708 20.7691 17.7215 25.8454C22.0567 30.3827 28.6788 25.9631 34.1646 27.1531C37.3542 27.8448 40.5907 28.9831 41.7231 25.3099C42.5071 22.7705 40.8299 20.9969 38.0229 20.4768C33.1997 19.5816 27.9104 24.5057 23.2804 21.8866C18.4901 19.1769 22.0014 13.1119 21.7289 9.39463C21.3125 3.72845 15.6117 -0.983061 9.45176 0.520637C7.59243 0.973843 -2.44412 4.12898 0.902717 7.12443Z" fill="#C2D0FB"/>
</svg>
