<svg width="40" height="48" viewBox="0 0 40 48" fill="none" xmlns="http://www.w3.org/2000/svg">
<path fill-rule="evenodd" clip-rule="evenodd" d="M37.472 8.61835C31.9459 11.1162 26.4199 13.6141 20.8951 16.1119C19.0684 12.4418 15.9823 2.41514 11.3491 1.13497C3.84873 -0.938061 8.62475 9.99166 9.91916 12.4907C10.9825 14.5432 13.4492 17.7238 12.8503 20.1705C12.0471 23.4669 7.09443 24.6346 4.50198 26.3351C-1.91322 30.5448 -1.86242 39.3856 7.42832 35.6393C12.6858 33.5186 19.1954 27.638 23.225 34.3149C25.0856 37.3954 29.4938 54.6068 34.0981 43.351C36.947 36.3822 23.2347 29.1419 29.9946 23.2466C32.171 21.3496 34.7187 21.1894 36.8925 20.099C42.1428 17.4648 39.1826 12.5974 37.472 8.61835Z" fill="#C2D0FB"/>
</svg>
