<svg width="44" height="31" viewBox="0 0 44 31" fill="none" xmlns="http://www.w3.org/2000/svg">
<path fill-rule="evenodd" clip-rule="evenodd" d="M43.1506 25.8709C41.3979 23.7857 39.5959 20.6812 36.7372 19.6665C33.6995 18.5878 30.9654 20.317 28.0238 20.5819C20.0261 21.3027 20.9822 13.6844 20.2884 8.78242C19.6325 4.1535 16.7909 1.42885 11.6347 0.955009C9.58009 0.766644 0.73546 0.243367 0.36701 3.0706C0.101169 5.10471 4.28298 5.63224 5.61444 5.94814C8.50411 6.63494 11.1603 7.31176 12.8462 9.83169C16.0096 14.5573 13.3574 20.7554 18.2788 24.9061C23.3676 29.1985 26.9129 24.5026 32.25 25.124C35.8276 25.5413 36.2303 28.8236 39.1632 29.9681C41.9578 31.0593 45.3776 28.5187 43.1506 25.8709Z" fill="#C2D0FB"/>
</svg>
